<?xml version="1.0" encoding="UTF-8"?>
<svg version="1.1" xmlns="http://www.w3.org/2000/svg" width="612" height="408">
<path d="M0 0 C1.57242714 -0.00855011 1.57242714 -0.00855011 3.17662048 -0.01727295 C5.39304605 -0.02669977 7.60948549 -0.0332477 9.82592773 -0.03710938 C13.17913015 -0.04677209 16.53170794 -0.07780056 19.88476562 -0.109375 C41.93067631 -0.21967188 58.7738278 3.16394294 75.15234375 19.203125 C88.17178677 33.97822018 93.40169724 50.74956769 92.31201172 70.23730469 C90.91689858 87.41383525 80.75696139 102.98984037 68.01953125 114.0625 C54.08246796 124.46782791 39.3443318 126.64491876 22.46484375 126.890625 C20.87692629 126.92387217 19.28903446 126.95836839 17.70117188 126.99414062 C13.85170624 127.07818651 10.00229014 127.14538697 6.15234375 127.203125 C6.03697266 128.27401367 5.92160156 129.34490234 5.80273438 130.44824219 C5.63844993 131.88221068 5.47371212 133.31612729 5.30859375 134.75 C5.23415039 135.45237793 5.15970703 136.15475586 5.08300781 136.87841797 C3.44587582 150.79403993 -3.81357969 162.22143546 -14.29296875 171.328125 C-24.44759012 178.90327663 -35.21460526 182.12926405 -47.66015625 182.765625 C-48.44841797 182.80880859 -49.23667969 182.85199219 -50.04882812 182.89648438 C-51.9815984 183.00190821 -53.91460651 183.10295594 -55.84765625 183.203125 C-55.91743005 173.98823637 -55.97060569 164.77343988 -56.00309277 155.55834389 C-56.01869167 151.27854651 -56.03982322 146.99893102 -56.07397461 142.71923828 C-56.10677564 138.58247486 -56.1245526 134.44588545 -56.13228798 130.30900192 C-56.13779451 128.73748413 -56.14854662 127.16597492 -56.16484642 125.59453201 C-56.31578398 110.42785021 -53.79127191 98.41207343 -43.16015625 86.953125 C-31.87674065 76.25445454 -18.70967457 74.07780327 -3.83984375 74.0625 C-1.6979059 74.04418736 0.44402151 74.02461851 2.5859375 74.00390625 C5.94142572 73.97485654 9.29623291 73.95312227 12.65185547 73.95263672 C15.90522787 73.94930773 19.1570524 73.91481429 22.41015625 73.875 C23.41233185 73.8820697 24.41450745 73.8891394 25.447052 73.89642334 C31.30589024 73.79400675 31.30589024 73.79400675 36.26123047 70.78613281 C39.05644681 66.96824114 39.52473067 64.95105823 39.15234375 60.203125 C37.42573533 56.40458647 35.99343938 54.73961669 32.15234375 53.203125 C29.81870553 52.88993584 29.81870553 52.88993584 27.30224609 52.91259766 C25.85825943 52.8934581 25.85825943 52.8934581 24.38510132 52.87393188 C23.3466507 52.87170624 22.30820007 52.86948059 21.23828125 52.8671875 C20.15463287 52.8605307 19.0709845 52.8538739 17.95449829 52.84701538 C15.65295099 52.83688331 13.35137427 52.83219853 11.04980469 52.83251953 C7.58867122 52.82820151 4.12887185 52.79204156 0.66796875 52.75390625 C-17.15032103 52.66176026 -34.80581192 53.50253059 -49.84765625 64.203125 C-51.66018884 66.28953983 -51.66018884 66.28953983 -52.84765625 68.203125 C-54.16765625 67.873125 -55.48765625 67.543125 -56.84765625 67.203125 C-56.24684338 46.42328676 -54.20353702 29.49190698 -38.99609375 14.01171875 C-27.93269741 3.57555533 -14.78445527 0.062828 0 0 Z M-32.11328125 28.01171875 C-34.77891253 31.3797799 -36.79950942 35.0187908 -37.84765625 39.203125 C-37.51765625 40.193125 -37.18765625 41.183125 -36.84765625 42.203125 C-35.14222656 41.78740234 -35.14222656 41.78740234 -33.40234375 41.36328125 C-31.84258054 40.99683086 -30.28267681 40.63097827 -28.72265625 40.265625 C-27.98144531 40.08322266 -27.24023438 39.90082031 -26.4765625 39.71289062 C-13.41268398 36.6939271 -0.03339484 37.04227112 13.28613281 37.33520508 C16.04365223 37.39095471 18.80067096 37.41918833 21.55859375 37.44726562 C23.337274 37.48268718 25.1159227 37.51973849 26.89453125 37.55859375 C28.11195511 37.56514229 28.11195511 37.56514229 29.35397339 37.57182312 C36.04014023 37.76977314 41.25902004 39.71947544 46.359375 44.09765625 C52.46126599 51.38726325 54.82370345 57.30383584 54.55859375 66.9140625 C53.69833874 73.87881941 50.84384311 79.20036153 45.40234375 83.640625 C38.34628166 88.77927891 30.20920738 89.63748419 21.74609375 89.609375 C20.2989801 89.62562927 20.2989801 89.62562927 18.82263184 89.64221191 C14.73612981 89.68766708 10.64969732 89.69949941 6.56298828 89.71435547 C3.56130067 89.73014627 0.56012522 89.76316119 -2.44140625 89.796875 C-3.35104126 89.79385376 -4.26067627 89.79083252 -5.19787598 89.78771973 C-16.69994638 89.92121118 -24.62914424 93.86601044 -32.59765625 102.015625 C-38.08716106 109.79242347 -39.99860032 117.05210998 -39.91015625 126.515625 C-39.90113281 127.76988281 -39.89210937 129.02414063 -39.8828125 130.31640625 C-39.87121094 131.26902344 -39.85960937 132.22164063 -39.84765625 133.203125 C-39.25597656 132.46191406 -38.66429687 131.72070312 -38.0546875 130.95703125 C-37.32636719 130.04824219 -36.59804687 129.13945312 -35.84765625 128.203125 C-35.01814453 127.16478516 -35.01814453 127.16478516 -34.171875 126.10546875 C-26.62782336 117.0490058 -17.39779755 113.58874301 -5.84765625 112.203125 C-2.60193232 112.04908481 0.64165695 112.01935795 3.890625 111.9921875 C5.78190969 111.96411821 7.67318562 111.93545374 9.56445312 111.90625 C12.51326235 111.86508673 15.46190816 111.82815127 18.41088867 111.80175781 C21.27946701 111.7739285 24.14732895 111.72806655 27.015625 111.6796875 C27.88262527 111.67643463 28.74962555 111.67318176 29.64289856 111.66983032 C42.72809404 111.41100729 54.65245183 106.15626055 64.15234375 97.203125 C72.66620811 87.08034139 77.88855284 74.90138849 77.39453125 61.48046875 C75.94513973 47.85151299 71.4939017 36.41439555 61.3203125 26.94921875 C50.41933784 18.16951483 39.26504085 15.05256565 25.4765625 15.03515625 C24.55196732 15.03182785 23.62737213 15.02849945 22.67475891 15.02507019 C20.72401423 15.0200226 18.77326097 15.01766119 16.82250977 15.01782227 C13.86004175 15.01563988 10.89794892 14.99747224 7.93554688 14.97851562 C6.03255334 14.97558031 4.12955806 14.97359644 2.2265625 14.97265625 C1.35126389 14.96547073 0.47596527 14.95828522 -0.42585754 14.95088196 C-13.23476621 14.99774934 -23.18785364 18.60431805 -32.11328125 28.01171875 Z M-38.84765625 42.203125 C-38.51765625 42.863125 -38.18765625 43.523125 -37.84765625 44.203125 C-37.51765625 43.543125 -37.18765625 42.883125 -36.84765625 42.203125 C-37.50765625 42.203125 -38.16765625 42.203125 -38.84765625 42.203125 Z M-26.19140625 139.4140625 C-33.06389049 146.83764218 -38.79939179 155.98254652 -39.84765625 166.203125 C-29.23815186 163.18236333 -21.2034278 158.45897142 -14.84765625 149.203125 C-11.73842348 142.91690378 -9.50800279 137.28277691 -9.84765625 130.203125 C-15.25539413 130.203125 -22.34700961 135.87794295 -26.19140625 139.4140625 Z " fill="#FDFDFD" transform="translate(287.84765625,112.796875)"/>
</svg>
