<?xml version="1.0" encoding="UTF-8"?>
<svg version="1.1" xmlns="http://www.w3.org/2000/svg" width="206" height="257">
<path d="M0 0 C0.65049316 0.41540039 1.30098633 0.83080078 1.97119141 1.25878906 C9.0827163 5.79312657 16.22141552 10.28236714 23.375 14.75 C24.42816406 15.40871094 25.48132813 16.06742188 26.56640625 16.74609375 C27.58347656 17.38160156 28.60054688 18.01710938 29.6484375 18.671875 C30.55770996 19.2400293 31.46698242 19.80818359 32.40380859 20.39355469 C34.18901853 21.49818901 36.00161028 22.55938338 37.83447266 23.58300781 C38.54909668 24.05061523 39.2637207 24.51822266 40 25 C40 25.66 40 26.32 40 27 C41.09828125 27.15275391 41.09828125 27.15275391 42.21875 27.30859375 C45.3013373 28.0749111 46.97227703 29.16237948 49.5 31.0625 C54.29394803 34.5400482 59.23103812 37.64930291 64.2890625 40.7265625 C68.49397742 43.29053501 72.65263138 45.92628147 76.8125 48.5625 C85.57459923 54.11161881 94.3664438 59.61233245 103.16723633 65.09985352 C104.63132935 66.01335571 104.63132935 66.01335571 106.125 66.9453125 C107.42824219 67.75766357 107.42824219 67.75766357 108.7578125 68.58642578 C113.95414024 71.86242073 113.95414024 71.86242073 115 75 C115.0960187 76.4616801 115.13808387 77.92727697 115.14526367 79.39208984 C115.15164352 80.27665863 115.15802338 81.16122742 115.16459656 82.07260132 C115.16626579 83.50232773 115.16626579 83.50232773 115.16796875 84.9609375 C115.17129715 85.94365631 115.17462555 86.92637512 115.17805481 87.93887329 C115.18311879 90.01848889 115.1854633 92.09811262 115.18530273 94.17773438 C115.18748667 97.35560545 115.20564105 100.53312797 115.22460938 103.7109375 C115.22754392 105.73176965 115.22952831 107.75260344 115.23046875 109.7734375 C115.23765427 110.72253998 115.24483978 111.67164246 115.25224304 112.64950562 C115.22204438 121.3938728 115.22204438 121.3938728 113 125 C111.06103516 126.54370117 111.06103516 126.54370117 108.6640625 127.85546875 C107.7659082 128.35997559 106.86775391 128.86448242 105.94238281 129.38427734 C104.97139648 129.91746582 104.00041016 130.4506543 103 131 C100.96398825 132.17987843 98.93020667 133.36361194 96.8984375 134.55078125 C94.72457906 135.80576333 92.55008042 137.05963701 90.375 138.3125 C89.52127304 138.80497726 89.52127304 138.80497726 88.65029907 139.30740356 C81.22722499 143.58936139 73.77956821 147.82174406 66.29370117 151.99267578 C61.10298538 154.90225427 56.0652084 158.01740092 51.015625 161.1640625 C47.33321272 163.40594563 43.56856559 165.45639458 39.76953125 167.4921875 C33.85978244 170.70962479 28.00206169 174.07639156 22.3359375 177.70703125 C20 179 20 179 17 179 C17 179.66 17 180.32 17 181 C15.35 181 13.7 181 12 181 C11.82237569 174.39844024 11.6998717 167.79749712 11.61547852 161.1940918 C11.58029608 158.94841486 11.53254131 156.70289802 11.47192383 154.45776367 C11.38690997 151.22795131 11.34728933 148.00025898 11.31640625 144.76953125 C11.28027725 143.76727005 11.24414825 142.76500885 11.20692444 141.7323761 C11.20308866 134.90845288 11.20308866 134.90845288 13.51239014 132.27592468 C15.29210846 130.98433497 17.02752419 129.96540039 19 129 C19.86882812 128.49855469 20.73765625 127.99710937 21.6328125 127.48046875 C22.86644531 126.84044922 22.86644531 126.84044922 24.125 126.1875 C28.35155865 123.93526532 32.43594028 121.53400398 36.5 119 C42.22389238 115.43952192 48.05875883 112.17956332 54 109 C56.26759803 107.75020175 58.52955026 106.4909105 60.7890625 105.2265625 C62.36039677 104.35483289 63.9393954 103.49685634 65.5234375 102.6484375 C66.74933594 101.98714844 66.74933594 101.98714844 68 101.3125 C68.7425 100.91675781 69.485 100.52101563 70.25 100.11328125 C72.15984861 99.10915246 72.15984861 99.10915246 73 97 C71.35 96.34 69.7 95.68 68 95 C68 94.34 68 93.68 68 93 C67.42870361 92.8875293 66.85740723 92.77505859 66.26879883 92.65917969 C63.73894191 91.92415185 61.91893198 90.86814016 59.69921875 89.453125 C58.88646484 88.9375 58.07371094 88.421875 57.23632812 87.890625 C56.39521484 87.34921875 55.55410156 86.8078125 54.6875 86.25 C53.85798828 85.7240625 53.02847656 85.198125 52.17382812 84.65625 C48.40381229 82.25200944 44.69287172 79.81001863 41.08203125 77.171875 C38.1653316 74.89512219 38.1653316 74.89512219 35 74 C35 73.34 35 72.68 35 72 C34.43539062 71.89429687 33.87078125 71.78859375 33.2890625 71.6796875 C30.59609008 70.8800677 28.71765823 69.67933514 26.375 68.125 C21.14303817 64.72670273 15.87195309 61.40113632 10.5625 58.125 C9.78116699 57.63660645 8.99983398 57.14821289 8.19482422 56.64501953 C7.45119629 56.18724121 6.70756836 55.72946289 5.94140625 55.2578125 C5.27826416 54.8467627 4.61512207 54.43571289 3.93188477 54.01220703 C1.92656792 52.96152541 0.23535483 52.35061014 -2 52 C-4.47471956 52.94464227 -4.47471956 52.94464227 -7 54.5 C-8.43859375 55.32371094 -8.43859375 55.32371094 -9.90625 56.1640625 C-12.03326144 57.42630414 -14.15814793 58.69213127 -16.28125 59.9609375 C-17.3434375 60.59257813 -18.405625 61.22421875 -19.5 61.875 C-20.4796875 62.47054687 -21.459375 63.06609375 -22.46875 63.6796875 C-25 65 -25 65 -28 65 C-28 65.66 -28 66.32 -28 67 C-30.07573081 68.20284401 -32.15883095 69.38705701 -34.25 70.5625 C-34.83652344 70.90474609 -35.42304687 71.24699219 -36.02734375 71.59960938 C-40.50804195 74.09168309 -40.50804195 74.09168309 -43.20214844 73.58959961 C-44.09208496 73.2977478 -44.09208496 73.2977478 -45 73 C-45.12675467 66.5223479 -45.21433146 60.04501538 -45.2746582 53.56640625 C-45.29980574 51.36250864 -45.33392827 49.15869445 -45.37719727 46.95507812 C-45.43783686 43.78755114 -45.46620749 40.6211264 -45.48828125 37.453125 C-45.51408768 36.46757629 -45.5398941 35.48202759 -45.56648254 34.46661377 C-45.56929406 27.61267383 -45.56929406 27.61267383 -42.61303711 24.43115234 C-41.75073486 23.95887207 -40.88843262 23.4865918 -40 23 C-39.24203125 22.55398437 -38.4840625 22.10796875 -37.703125 21.6484375 C-36.89359375 21.22820313 -36.0840625 20.80796875 -35.25 20.375 C-30.27783395 17.72452012 -25.41148498 14.92959488 -20.5625 12.0625 C-19.83844971 11.63453125 -19.11439941 11.2065625 -18.3684082 10.765625 C-16.93196902 9.91612316 -15.49568691 9.06635566 -14.05957031 8.21630859 C-9.38562662 5.45604455 -4.69094148 2.73123562 0 0 Z " fill="#FCFCFC" transform="translate(77,15)"/>
<path d="M0 0 C0 0.66 0 1.32 0 2 C0.70511719 2.26167969 1.41023438 2.52335937 2.13671875 2.79296875 C7.37036831 4.99924121 12.13498785 8.08727014 17 11 C17.84433594 11.495 18.68867187 11.99 19.55859375 12.5 C21.40874844 13.60811404 23.21089846 14.79579704 25 16 C25 16.66 25 17.32 25 18 C26.299375 18.37125 26.299375 18.37125 27.625 18.75 C31.18302254 20.06778613 33.9226155 21.80186822 37 24 C35.625 25.5 35.625 25.5 34 27 C33.34 27 32.68 27 32 27 C32 27.66 32 28.32 32 29 C31.01 29 30.02 29 29 29 C29 29.66 29 30.32 29 31 C27.824375 31.5775 26.64875 32.155 25.4375 32.75 C22.21706886 34.36021557 19.07671373 36.06541286 15.96484375 37.87890625 C12.76111709 39.70687752 9.49397079 41.41856515 6.234375 43.14453125 C5.16703125 43.75683594 4.0996875 44.36914062 3 45 C2.1170224 45.39425674 1.2340448 45.78851349 0.3243103 46.19471741 C-4.16273672 48.48224298 -7.39734769 50.16170283 -9.01867676 55.10731506 C-9.39059067 59.00407804 -9.42563571 62.82111107 -9.3203125 66.7265625 C-9.31756035 68.1618935 -9.31867214 69.59723659 -9.32345581 71.03256226 C-9.32162863 74.03132143 -9.28232375 77.02644066 -9.21435547 80.02441406 C-9.12912464 83.86010705 -9.12387108 87.69076446 -9.14485359 91.52718544 C-9.15462243 94.48736703 -9.12918531 97.44641426 -9.09246445 100.406353 C-9.07778096 101.8200265 -9.07229473 103.23382756 -9.07632828 104.64757156 C-9.38599437 112.28927803 -9.38599437 112.28927803 -6.37054443 118.93328857 C-4.25882684 120.46771758 -4.25882684 120.46771758 -1 122 C-1 122.66 -1 123.32 -1 124 C-0.34 124 0.32 124 1 124 C1 124.66 1 125.32 1 126 C-3.09741544 128.9963825 -7.61403807 131.44781995 -12 134 C-13.39822998 134.81476807 -13.39822998 134.81476807 -14.82470703 135.64599609 C-17.91888849 137.44116548 -21.0203919 139.22292959 -24.125 141 C-25.144729 141.58821533 -26.16445801 142.17643066 -27.21508789 142.7824707 C-28.17793701 143.32863037 -29.14078613 143.87479004 -30.1328125 144.4375 C-31.43049561 145.17806641 -31.43049561 145.17806641 -32.75439453 145.93359375 C-35 147 -35 147 -38 147 C-38 147.66 -38 148.32 -38 149 C-39.78881736 150.00508801 -41.58114696 151.00392736 -43.375 152 C-44.37273438 152.556875 -45.37046875 153.11375 -46.3984375 153.6875 C-49 155 -49 155 -51 155 C-51.78076658 151.54060552 -52.1301529 148.3377309 -52.14717102 144.79405212 C-52.15432632 143.76643265 -52.16148163 142.73881317 -52.16885376 141.68005371 C-52.17154266 140.56352417 -52.17423157 139.44699463 -52.17700195 138.29663086 C-52.18357315 137.11239029 -52.19014435 135.92814972 -52.19691467 134.70802307 C-52.2166093 130.79363646 -52.22830255 126.87926327 -52.23828125 122.96484375 C-52.24233101 121.61494998 -52.246448 120.26505641 -52.25063133 118.91516304 C-52.26965613 112.57735571 -52.28389766 106.23955989 -52.2922433 99.90172952 C-52.30203201 92.58970812 -52.32840496 85.27798812 -52.36874419 77.96607298 C-52.3988824 72.30905364 -52.41370962 66.65212091 -52.41702431 60.99502283 C-52.41937572 57.61787765 -52.42834863 54.24105549 -52.45348549 50.86399651 C-52.47771188 47.10040787 -52.47694234 43.33761658 -52.4699707 39.57397461 C-52.48278076 38.45542084 -52.49559082 37.33686707 -52.50878906 36.18441772 C-52.50184525 35.15961807 -52.49490143 34.13481842 -52.48774719 33.07896423 C-52.49013555 32.18947555 -52.4925239 31.29998686 -52.49498463 30.38354397 C-51.82776865 27.17063889 -50.58863994 25.9623894 -48 24 C-46.68 24 -45.36 24 -44 24 C-44 23.34 -44 22.68 -44 22 C-43.22398438 21.5875 -42.44796875 21.175 -41.6484375 20.75 C-32.39536005 15.80324738 -23.12459445 10.81926957 -14.21875 5.265625 C-12 4 -12 4 -10 4 C-10 3.34 -10 2.68 -10 2 C-6.49223216 0.39644899 -3.85645121 -0.22036864 0 0 Z " fill="#FAFAFA" transform="translate(84,88)"/>
<path d="M0 0 C0.33 0.99 0.66 1.98 1 3 C-2.00229182 4.91813089 -4.52846619 6.23596585 -8 7 C-7.9395307 22.87240713 -7.86207744 38.74463396 -7.76428509 54.6168499 C-7.71927853 61.9862513 -7.67987526 69.35560384 -7.65356445 76.72509766 C-7.63062352 83.14675793 -7.59726973 89.56826423 -7.55129844 95.98980248 C-7.52731306 99.39143751 -7.50861933 102.79291956 -7.50238609 106.1946373 C-7.49282102 109.98790175 -7.46485274 113.780603 -7.43237305 117.57373047 C-7.43380814 118.70733002 -7.43524323 119.84092957 -7.4367218 121.00888062 C-7.42418365 122.03815674 -7.41164551 123.06743286 -7.39872742 124.12789917 C-7.39411845 125.02572554 -7.38950949 125.9235519 -7.38476086 126.84858513 C-7.19430423 127.91353549 -7.19430423 127.91353549 -7 129 C-6.01 129.66 -5.02 130.32 -4 131 C-8.75 134 -8.75 134 -11 134 C-11.78076658 130.54060552 -12.1301529 127.3377309 -12.14717102 123.79405212 C-12.15432632 122.76643265 -12.16148163 121.73881317 -12.16885376 120.68005371 C-12.17154266 119.56352417 -12.17423157 118.44699463 -12.17700195 117.29663086 C-12.18357315 116.11239029 -12.19014435 114.92814972 -12.19691467 113.70802307 C-12.2166093 109.79363646 -12.22830255 105.87926327 -12.23828125 101.96484375 C-12.24233101 100.61494998 -12.246448 99.26505641 -12.25063133 97.91516304 C-12.26965613 91.57735571 -12.28389766 85.23955989 -12.2922433 78.90172952 C-12.30203201 71.58970812 -12.32840496 64.27798812 -12.36874419 56.96607298 C-12.3988824 51.30905364 -12.41370962 45.65212091 -12.41702431 39.99502283 C-12.41937572 36.61787765 -12.42834863 33.24105549 -12.45348549 29.86399651 C-12.47771188 26.10040787 -12.47694234 22.33761658 -12.4699707 18.57397461 C-12.48278076 17.45542084 -12.49559082 16.33686707 -12.50878906 15.18441772 C-12.50184525 14.15961807 -12.49490143 13.13481842 -12.48774719 12.07896423 C-12.49013555 11.18947555 -12.4925239 10.29998686 -12.49498463 9.38354397 C-11.82776865 6.17063889 -10.58863994 4.9623894 -8 3 C-6.68 3 -5.36 3 -4 3 C-4 2.34 -4 1.68 -4 1 C-2 0 -2 0 0 0 Z " fill="#939495" transform="translate(44,109)"/>
<path d="M0 0 C0 0.99 0 1.98 0 3 C-3.33333333 6 -3.33333333 6 -6 6 C-6.66 10.29 -7.32 14.58 -8 19 C-8.33 19 -8.66 19 -9 19 C-9.33 30.55 -9.66 42.1 -10 54 C-9.01 54.33 -8.02 54.66 -7 55 C-8.65 55 -10.3 55 -12 55 C-12.17762431 48.39844024 -12.3001283 41.79749712 -12.38452148 35.1940918 C-12.41970392 32.94841486 -12.46745869 30.70289802 -12.52807617 28.45776367 C-12.61309003 25.22795131 -12.65271067 22.00025898 -12.68359375 18.76953125 C-12.73778725 17.26613945 -12.73778725 17.26613945 -12.79307556 15.7323761 C-12.79691077 8.9094665 -12.79691077 8.9094665 -10.49832153 6.28622437 C-8.71616217 4.9947481 -6.9681185 3.97867767 -5 3 C-3.5459375 2.1028125 -3.5459375 2.1028125 -2.0625 1.1875 C-1.381875 0.795625 -0.70125 0.40375 0 0 Z " fill="#4C4C4C" transform="translate(101,141)"/>
<path d="M0 0 C1.65 0 3.3 0 5 0 C5 0.66 5 1.32 5 2 C5.70511719 2.26167969 6.41023438 2.52335937 7.13671875 2.79296875 C12.37036831 4.99924121 17.13498785 8.08727014 22 11 C22.84433594 11.495 23.68867187 11.99 24.55859375 12.5 C26.40874844 13.60811404 28.21089846 14.79579704 30 16 C30 16.66 30 17.32 30 18 C30.86625 18.2475 31.7325 18.495 32.625 18.75 C36.18302254 20.06778613 38.9226155 21.80186822 42 24 C41.01 24.99 40.02 25.98 39 27 C38.01 26.67 37.02 26.34 36 26 C36.33 24.68 36.66 23.36 37 22 C35.35 22 33.7 22 32 22 C31.67 21.01 31.34 20.02 31 19 C29.906875 18.855625 28.81375 18.71125 27.6875 18.5625 C24 18 24 18 21 17 C21 16.01 21 15.02 21 14 C19.90558594 13.59974609 19.90558594 13.59974609 18.7890625 13.19140625 C16.03645741 12.01557354 13.8224762 10.64905123 11.375 8.9375 C8.82843844 7.16012171 6.96802184 5.98934061 4 5 C4 3.68 4 2.36 4 1 C2.68 0.67 1.36 0.34 0 0 Z " fill="#B4B5B5" transform="translate(79,88)"/>
<path d="M0 0 C0.66 0 1.32 0 2 0 C2.93130145 2.79390436 3.13110463 4.50338427 3.14526367 7.39208984 C3.15483345 8.71894302 3.15483345 8.71894302 3.16459656 10.07260132 C3.16570938 11.02575226 3.1668222 11.9789032 3.16796875 12.9609375 C3.17129715 13.94365631 3.17462555 14.92637512 3.17805481 15.93887329 C3.18311879 18.01848889 3.1854633 20.09811262 3.18530273 22.17773438 C3.18748667 25.35560545 3.20564105 28.53312797 3.22460938 31.7109375 C3.22754392 33.73176965 3.22952831 35.75260344 3.23046875 37.7734375 C3.23765427 38.72253998 3.24483978 39.67164246 3.25224304 40.64950562 C3.22262542 49.22562639 3.22262542 49.22562639 1 53 C-2.125 55.3125 -2.125 55.3125 -5 57 C-5.66 56.67 -6.32 56.34 -7 56 C-5.515 55.505 -5.515 55.505 -4 55 C-3.835 54.34 -3.67 53.68 -3.5 53 C-3.335 52.34 -3.17 51.68 -3 51 C-1.515 50.505 -1.515 50.505 0 50 C0 33.5 0 17 0 0 Z " fill="#434344" transform="translate(189,87)"/>
<path d="M0 0 C-0.8125 2.4375 -0.8125 2.4375 -2 5 C-2.99 5.33 -3.98 5.66 -5 6 C-5 20.19 -5 34.38 -5 49 C-4.34 49.33 -3.68 49.66 -3 50 C-4.98 50.495 -4.98 50.495 -7 51 C-7.80024604 48.1645795 -8.14193247 45.60482218 -8.19287109 42.66210938 C-8.21696548 41.39059021 -8.21696548 41.39059021 -8.24154663 40.09338379 C-8.28618806 36.2443956 -8.32701127 32.39557301 -8.35009766 28.54638672 C-8.36670017 26.51534603 -8.39404621 24.48436477 -8.43212891 22.45361328 C-8.48680026 19.52085164 -8.50875073 16.58945198 -8.5234375 13.65625 C-8.54610687 12.74887085 -8.56877625 11.8414917 -8.59213257 10.90661621 C-8.5710428 4.63393716 -8.5710428 4.63393716 -5.65478516 1.39648438 C-3 0 -3 0 0 0 Z " fill="#474848" transform="translate(40,38)"/>
<path d="M0 0 C0.33 0 0.66 0 1 0 C2.00774078 9.21557302 2.30912951 18.42861823 2.5625 27.6875 C2.60581078 29.17904546 2.64942848 30.67058205 2.69335938 32.16210938 C2.79910473 35.77464429 2.90071966 39.38728094 3 43 C4.32 43.33 5.64 43.66 7 44 C4.35261084 45.4606285 3.10551666 46 0 46 C0 30.82 0 15.64 0 0 Z " fill="#F6F6F6" transform="translate(91,149)"/>
<path d="M0 0 C-2.08086573 2.23827587 -4.08129751 3.76089943 -6.7578125 5.2265625 C-7.46550781 5.6184375 -8.17320312 6.0103125 -8.90234375 6.4140625 C-9.63582031 6.81367188 -10.36929688 7.21328125 -11.125 7.625 C-12.5867009 8.42829997 -14.04767803 9.23291879 -15.5078125 10.0390625 C-16.15379395 10.39178223 -16.79977539 10.74450195 -17.46533203 11.10791016 C-18.99457627 11.9092538 -18.99457627 11.9092538 -20 13 C-21.66617115 13.04063832 -23.33388095 13.042721 -25 13 C-25 12.34 -25 11.68 -25 11 C-22.953125 9.52734375 -22.953125 9.52734375 -20.25 7.9375 C-19.36828125 7.41027344 -18.4865625 6.88304687 -17.578125 6.33984375 C-15.31578297 5.16411145 -13.45402447 4.56881362 -11 4 C-9.97980427 3.0206121 -8.97850195 2.02104551 -8 1 C-5.07175348 0.02391783 -3.04386724 -0.08226668 0 0 Z " fill="#999999" transform="translate(145,165)"/>
<path d="M0 0 C0.66 0.33 1.32 0.66 2 1 C-0.26645058 2.34130761 -2.53760097 3.67316234 -4.8125 5 C-5.77639648 5.57234375 -5.77639648 5.57234375 -6.75976562 6.15625 C-11.66015625 9 -11.66015625 9 -15 9 C-15 9.66 -15 10.32 -15 11 C-16.98 11.66 -18.96 12.32 -21 13 C-21.33 12.01 -21.66 11.02 -22 10 C-21.07316406 9.51789063 -20.14632812 9.03578125 -19.19140625 8.5390625 C-17.98161257 7.9013418 -16.77198574 7.26330452 -15.5625 6.625 C-14.95083984 6.30789062 -14.33917969 5.99078125 -13.70898438 5.6640625 C-10.24761656 3.97695701 -10.24761656 3.97695701 -8 1 C-7.05125 1.020625 -6.1025 1.04125 -5.125 1.0625 C-2.09333717 1.22551826 -2.09333717 1.22551826 0 0 Z " fill="#A3A3A5" transform="translate(61,226)"/>
<path d="M0 0 C0 0.66 0 1.32 0 2 C-0.99 2 -1.98 2 -3 2 C-3.25265625 2.60585937 -3.5053125 3.21171875 -3.765625 3.8359375 C-6.3384992 8.34660936 -11.61892085 10.41569728 -16.25 12.375 C-19.08440348 13.01918261 -20.29058526 12.79892999 -23 12 C-12.74609375 6.140625 -12.74609375 6.140625 -10.88232422 5.08007812 C-9.59755727 4.34287852 -8.31811155 3.59634655 -7.04345703 2.84179688 C-2.21064815 0 -2.21064815 0 0 0 Z " fill="#F0F0F0" transform="translate(67,96)"/>
<path d="M0 0 C6.03325391 0.26231539 9.7563813 2.41686654 14.765625 5.72265625 C17.0051214 7.24815119 17.0051214 7.24815119 20 7 C20 7.99 20 8.98 20 10 C20.66 10.66 21.32 11.32 22 12 C20.26171875 12.66015625 20.26171875 12.66015625 18 13 C15.95703125 11.99609375 15.95703125 11.99609375 13.8125 10.4375 C13.03648438 9.88578125 12.26046875 9.3340625 11.4609375 8.765625 C10.64882812 8.18296875 9.83671875 7.6003125 9 7 C7.31581733 5.89078 5.6284615 4.78635826 3.9375 3.6875 C2.60592706 2.82027044 1.28606562 1.93338569 0 1 C0 0.67 0 0.34 0 0 Z " fill="#A1A1A1" transform="translate(91,74)"/>
<path d="M0 0 C2.475 0.99 2.475 0.99 5 2 C5 2.66 5 3.32 5 4 C5.66 4 6.32 4 7 4 C7 4.66 7 5.32 7 6 C4.96176988 7.40557304 2.94223094 8.68539281 0.8125 9.9375 C-0.0547168 10.45860352 -0.0547168 10.45860352 -0.93945312 10.99023438 C-2.62240843 12.00000756 -4.31113408 13.00014385 -6 14 C-6.92425781 14.59941406 -7.84851563 15.19882813 -8.80078125 15.81640625 C-9.88939453 16.40228516 -9.88939453 16.40228516 -11 17 C-11.66 16.67 -12.32 16.34 -13 16 C-12 15 -11 14 -10 13 C-9.2884375 12.1646875 -9.2884375 12.1646875 -8.5625 11.3125 C-7 10 -7 10 -3 10 C-3.33 9.34 -3.66 8.68 -4 8 C-2.02 7.67 -0.04 7.34 2 7 C1.67 6.401875 1.34 5.80375 1 5.1875 C0 3 0 3 0 0 Z " fill="#7F7F80" transform="translate(78,208)"/>
<path d="M0 0 C0.99 0.33 1.98 0.66 3 1 C2.34 1 1.68 1 1 1 C0.34 2.32 -0.32 3.64 -1 5 C-1.99 4.67 -2.98 4.34 -4 4 C-3.67 4.99 -3.34 5.98 -3 7 C-4.76537096 8.17491582 -6.53749713 9.33968684 -8.3125 10.5 C-9.29863281 11.1496875 -10.28476563 11.799375 -11.30078125 12.46875 C-14 14 -14 14 -17 14 C-17 12.68 -17 11.36 -17 10 C-16.27554688 9.61328125 -15.55109375 9.2265625 -14.8046875 8.828125 C-8.48699427 5.4652843 -8.48699427 5.4652843 -2.5 1.5625 C-1.675 1.046875 -0.85 0.53125 0 0 Z " fill="#B9B9B9" transform="translate(120,130)"/>
<path d="M0 0 C3.11257569 0 5.10765685 0.17361624 8 1 C8.103125 1.61875 8.20625 2.2375 8.3125 2.875 C8.87525373 5.36526484 8.87525373 5.36526484 12 7 C11.9375 9.25 11.9375 9.25 11 12 C7.9301813 14.47005978 5.00503984 16 1 16 C0.34 15.67 -0.32 15.34 -1 15 C0.10067996 14.18278283 1.20569731 13.37140549 2.3125 12.5625 C3.23482422 11.88380859 3.23482422 11.88380859 4.17578125 11.19140625 C6 10 6 10 9 9 C9.33 8.34 9.66 7.68 10 7 C7.525 6.01 7.525 6.01 5 5 C5 4.34 5 3.68 5 3 C4.360625 2.87625 3.72125 2.7525 3.0625 2.625 C2.381875 2.41875 1.70125 2.2125 1 2 C0.67 1.34 0.34 0.68 0 0 Z " fill="#7C7C7C" transform="translate(140,105)"/>
<path d="M0 0 C0.33 0.99 0.66 1.98 1 3 C-2.12298174 4.99523834 -4.34167128 6.08541782 -8 7 C-8 18.88 -8 30.76 -8 43 C-8.33 43 -8.66 43 -9 43 C-9.17360567 37.84066833 -9.30032367 32.6830509 -9.38452148 27.52148438 C-9.41963149 25.76760227 -9.4673337 24.01392372 -9.52807617 22.26074219 C-9.6134269 19.73321305 -9.65277796 17.20839923 -9.68359375 14.6796875 C-9.71972275 13.90132538 -9.75585175 13.12296326 -9.79307556 12.3210144 C-9.79551744 8.90186661 -9.67963579 6.82926189 -7.46536255 4.12750244 C-2.81115513 0 -2.81115513 0 0 0 Z " fill="#E3E5E4" transform="translate(44,109)"/>
<path d="M0 0 C1.32 0.66 2.64 1.32 4 2 C3.2884375 2.42023438 2.576875 2.84046875 1.84375 3.2734375 C-1.93538733 5.56791374 -5.60134923 8.02674092 -9.28125 10.4765625 C-11.97222549 11.9844367 -13.92951453 12.77917742 -17 13 C-17.66 12.34 -18.32 11.68 -19 11 C-16.50907189 9.75453595 -15.58919267 10.2232422 -13 11 C-13.33 10.01 -13.66 9.02 -14 8 C-9.56923077 4.92307692 -9.56923077 4.92307692 -6.6875 5.3125 C-6.130625 5.539375 -5.57375 5.76625 -5 6 C-4.67 4.68 -4.34 3.36 -4 2 C-2.68 1.67 -1.36 1.34 0 1 C0 0.67 0 0.34 0 0 Z " fill="#AFAFAF" transform="translate(102,120)"/>
<path d="M0 0 C-4.03596978 3.61845567 -8.52322815 6.01581041 -13.28125 8.53515625 C-15.1092154 9.5200514 -16.90244845 10.57199306 -18.65625 11.68359375 C-21 13 -21 13 -24 13 C-24 12.34 -24 11.68 -24 11 C-22.68 11 -21.36 11 -20 11 C-20 10.34 -20 9.68 -20 9 C-16.7 7.35 -13.4 5.7 -10 4 C-10 3.34 -10 2.68 -10 2 C-6.5980513 -0.09350689 -3.94727588 -0.17942163 0 0 Z " fill="#545455" transform="translate(73,67)"/>
<path d="M0 0 C0.99 0 1.98 0 3 0 C4 1 5 2 6 3 C7.2684375 3.495 7.2684375 3.495 8.5625 4 C11 5 11 5 13 8 C13.33 8.99 13.66 9.98 14 11 C10.04093183 9.56691865 6.71281819 7.66858051 3.1875 5.375 C2.21167969 4.74335937 1.23585938 4.11171875 0.23046875 3.4609375 C-0.50558594 2.97882813 -1.24164063 2.49671875 -2 2 C-1.34 1.34 -0.68 0.68 0 0 Z " fill="#9D9D9D" transform="translate(126,94)"/>
<path d="M0 0 C0.33 0 0.66 0 1 0 C1.33 3.96 1.66 7.92 2 12 C3.32 12.33 4.64 12.66 6 13 C6 11.35 6 9.7 6 8 C8.64 8 11.28 8 14 8 C14 8.66 14 9.32 14 10 C12.61518672 10.87191947 11.21654754 11.72190384 9.8125 12.5625 C9.03519531 13.03816406 8.25789063 13.51382813 7.45703125 14.00390625 C5 15 5 15 0 14 C0 9.38 0 4.76 0 0 Z " fill="#ACACAC" transform="translate(35,72)"/>
<path d="M0 0 C0.598125 0.35449219 1.19625 0.70898438 1.8125 1.07421875 C-0.10047061 2.22621206 -2.01802529 3.37059563 -3.9375 4.51171875 C-5.00484375 5.14980469 -6.0721875 5.78789062 -7.171875 6.4453125 C-9.62234971 7.76894974 -11.47741337 8.60718926 -14.1875 9.07421875 C-12.26290928 4.42312451 -9.39999711 2.80676908 -5.1875 0.26171875 C-2.1875 -0.92578125 -2.1875 -0.92578125 0 0 Z " fill="#9A9A9A" transform="translate(112.1875,182.92578125)"/>
<path d="M0 0 C2.49609375 1.328125 2.49609375 1.328125 5.4375 3.25 C6.88962891 4.18585937 6.88962891 4.18585937 8.37109375 5.140625 C10.50323423 6.6486471 12.25104439 8.07911316 14 10 C12.68 10.33 11.36 10.66 10 11 C9.34 10.01 8.68 9.02 8 8 C7.01 8.495 7.01 8.495 6 9 C6 8.34 6 7.68 6 7 C5.01 6.67 4.02 6.34 3 6 C3 5.34 3 4.68 3 4 C-0.05263664 3.01879536 -1.94736336 3.01879536 -5 4 C-3.36587557 2.29159719 -2.13093906 1.06546953 0 0 Z " fill="#68696B" transform="translate(77,15)"/>
<path d="M0 0 C2.125 0.375 2.125 0.375 4 1 C1.72402354 3.49552403 -0.60721178 5.06622986 -3.5625 6.6875 C-4.34753906 7.12449219 -5.13257813 7.56148437 -5.94140625 8.01171875 C-8 9 -8 9 -10 9 C-10 8.01 -10 7.02 -10 6 C-10.66 5.67 -11.32 5.34 -12 5 C-11.34 5 -10.68 5 -10 5 C-9.67 4.34 -9.34 3.68 -9 3 C-9 3.66 -9 4.32 -9 5 C-8.21625 4.649375 -7.4325 4.29875 -6.625 3.9375 C-5.75875 3.628125 -4.8925 3.31875 -4 3 C-3.34 3.33 -2.68 3.66 -2 4 C-2 3.34 -2 2.68 -2 2 C-1.34 1.34 -0.68 0.68 0 0 Z " fill="#ACACAC" transform="translate(155,156)"/>
<path d="M0 0 C1.32 0.33 2.64 0.66 4 1 C4 1.66 4 2.32 4 3 C4.86625 3.2475 5.7325 3.495 6.625 3.75 C10.18302254 5.06778613 12.9226155 6.80186822 16 9 C15.01 9.99 14.02 10.98 13 12 C12.01 11.67 11.02 11.34 10 11 C10.33 9.68 10.66 8.36 11 7 C9.35 7 7.7 7 6 7 C5.67 6.01 5.34 5.02 5 4 C4.01 3.67 3.02 3.34 2 3 C1.34 2.01 0.68 1.02 0 0 Z " fill="#727272" transform="translate(105,103)"/>
<path d="M0 0 C3.62276315 1.3255581 6.63505348 2.94346955 9.8125 5.125 C10.60269531 5.66382813 11.39289063 6.20265625 12.20703125 6.7578125 C12.79871094 7.16773437 13.39039063 7.57765625 14 8 C12.02 8.99 12.02 8.99 10 10 C9.2575 9.38125 8.515 8.7625 7.75 8.125 C5.20458508 5.98432706 5.20458508 5.98432706 2.75 5 C1 4 1 4 0.25 1.875 C0.1675 1.25625 0.085 0.6375 0 0 Z " fill="#A09F9F" transform="translate(143,58)"/>
<path d="M0 0 C3.95906817 1.43308135 7.28718181 3.33141949 10.8125 5.625 C11.78832031 6.25664063 12.76414063 6.88828125 13.76953125 7.5390625 C14.50558594 8.02117187 15.24164063 8.50328125 16 9 C13.2823481 9.80544481 12.1397026 10.03573787 9.3125 9.3125 C7 8 7 8 6.1875 5.875 C6.125625 5.25625 6.06375 4.6375 6 4 C4.68 4 3.36 4 2 4 C1.34 2.68 0.68 1.36 0 0 Z " fill="#8F8F90" transform="translate(159,68)"/>
<path d="M0 0 C-0.125 1.8125 -0.125 1.8125 -1 4 C-4.21776055 5.93065633 -7.31145641 7.29066469 -11 8 C-11 7.01 -11 6.02 -11 5 C-9.54462432 4.16151196 -8.08559627 3.32936066 -6.625 2.5 C-5.81289062 2.0359375 -5.00078125 1.571875 -4.1640625 1.09375 C-2 0 -2 0 0 0 Z " fill="#BBBBBB" transform="translate(135,123)"/>
<path d="M0 0 C4.10958767 1.45044271 7.43258745 3.51110752 11 6 C10.67 6.99 10.34 7.98 10 9 C6.66666667 7.33333333 3.33333333 5.66666667 0 4 C0 2.68 0 1.36 0 0 Z " fill="#B0B0B1" transform="translate(132,51)"/>
<path d="M0 0 C-2.27745789 2.48982535 -4.62335238 4.10368997 -7.5625 5.75 C-8.34753906 6.19859375 -9.13257813 6.6471875 -9.94140625 7.109375 C-10.62074219 7.40328125 -11.30007812 7.6971875 -12 8 C-12.66 7.67 -13.32 7.34 -14 7 C-13.67 6.01 -13.34 5.02 -13 4 C-11.67696283 3.6278958 -10.34262065 3.29369827 -9 3 C-8.67 2.34 -8.34 1.68 -8 1 C-5.29120665 -0.35439668 -2.99066732 -0.06501451 0 0 Z " fill="#909091" transform="translate(173,149)"/>
<path d="M0 0 C0.66 0.33 1.32 0.66 2 1 C0.38759849 4.40395875 -0.54800674 5.78341989 -4 7.4375 C-7 8 -7 8 -10 6 C-8.3811004 4.96951963 -6.75467511 3.95085322 -5.125 2.9375 C-4.22007813 2.36902344 -3.31515625 1.80054687 -2.3828125 1.21484375 C-1.20332031 0.61349609 -1.20332031 0.61349609 0 0 Z " fill="#BABBBB" transform="translate(58,26)"/>
<path d="M0 0 C0 0.99 0 1.98 0 3 C-3.33333333 6 -3.33333333 6 -6 6 C-6.66 10.29 -7.32 14.58 -8 19 C-8.33 19 -8.66 19 -9 19 C-9.10841951 17.08458862 -9.18578079 15.16740227 -9.25 13.25 C-9.29640625 12.18265625 -9.3428125 11.1153125 -9.390625 10.015625 C-8.91003579 6.30547627 -7.87880388 5.29469874 -5 3 C-3.36021682 1.95650161 -1.69905634 0.94392019 0 0 Z " fill="#E5E5E5" transform="translate(101,141)"/>
<path d="M0 0 C0 0.66 0 1.32 0 2 C-0.99 2 -1.98 2 -3 2 C-3.268125 2.639375 -3.53625 3.27875 -3.8125 3.9375 C-5 6 -5 6 -8 7 C-8.66 6.67 -9.32 6.34 -10 6 C-10.33 6.66 -10.66 7.32 -11 8 C-11.99 7.67 -12.98 7.34 -14 7 C-12.04480616 5.82807953 -10.0857461 4.6626071 -8.125 3.5 C-7.03445312 2.8503125 -5.94390625 2.200625 -4.8203125 1.53125 C-2 0 -2 0 0 0 Z " fill="#868788" transform="translate(67,96)"/>
<path d="M0 0 C1.6266848 0.28211877 3.25132896 0.57602375 4.875 0.875 C5.77992187 1.03742188 6.68484375 1.19984375 7.6171875 1.3671875 C10 2 10 2 12 4 C12 4.99 12 5.98 12 7 C11.29875 6.71125 10.5975 6.4225 9.875 6.125 C7.87435511 5.34213896 5.8506134 4.61687113 3.8125 3.9375 C1 3 1 3 -1 2 C-0.67 1.34 -0.34 0.68 0 0 Z " fill="#808080" transform="translate(74,64)"/>
<path d="M0 0 C-5.14285714 4.42857143 -5.14285714 4.42857143 -9 5 C-9 3.68 -9 2.36 -9 1 C-5.64919071 -1.10976881 -3.77897651 -1.0497157 0 0 Z " fill="#C0C0C0" transform="translate(112,139)"/>
<path d="M0 0 C1.32 0.66 2.64 1.32 4 2 C2.88625 2.6496875 2.88625 2.6496875 1.75 3.3125 C-0.9759487 4.8981141 -0.9759487 4.8981141 -3.125 6.75 C-3.74375 7.1625 -4.3625 7.575 -5 8 C-5.99 7.67 -6.98 7.34 -8 7 C-7.34 6.67 -6.68 6.34 -6 6 C-5.71125 5.34 -5.4225 4.68 -5.125 4 C-4 2 -4 2 -1.875 1.25 C-1.25625 1.1675 -0.6375 1.085 0 1 C0 0.67 0 0.34 0 0 Z " fill="#959595" transform="translate(102,120)"/>
<path d="M0 0 C4.10958767 1.45044271 7.43258745 3.51110752 11 6 C8.52221994 6.88492145 7.33943414 7.11637742 4.8125 6.25 C3 5 3 5 2 2 C1.01 2.33 0.02 2.66 -1 3 C-0.67 2.01 -0.34 1.02 0 0 Z " fill="#848587" transform="translate(175,78)"/>
<path d="M0 0 C0 0.66 0 1.32 0 2 C-5.625 5 -5.625 5 -9 5 C-9 5.66 -9 6.32 -9 7 C-10.32 7 -11.64 7 -13 7 C-13 6.34 -13 5.68 -13 5 C-11.21046815 4.16209211 -9.41830305 3.32980604 -7.625 2.5 C-6.62726562 2.0359375 -5.62953125 1.571875 -4.6015625 1.09375 C-2 0 -2 0 0 0 Z " fill="#ECECED" transform="translate(62,71)"/>
<path d="M0 0 C3.72114571 2.31537955 6.61229661 4.28579473 9 8 C7.1875 8.625 7.1875 8.625 5 9 C1.13892543 6.42595029 1.05680308 4.38979741 0 0 Z " fill="#C8C8C8" transform="translate(84,65)"/>
<path d="M0 0 C0.99 0 1.98 0 3 0 C3 0.66 3 1.32 3 2 C3.78375 2.103125 4.5675 2.20625 5.375 2.3125 C8 3 8 3 10 6 C6.7 5.34 3.4 4.68 0 4 C-0.33 4.66 -0.66 5.32 -1 6 C-1.33 5.01 -1.66 4.02 -2 3 C-1.34 3 -0.68 3 0 3 C0 2.01 0 1.02 0 0 Z " fill="#9D9E9E" transform="translate(114,40)"/>
<path d="M0 0 C2.475 0.99 2.475 0.99 5 2 C5 2.66 5 3.32 5 4 C5.66 4 6.32 4 7 4 C7 4.66 7 5.32 7 6 C5.68 6.33 4.36 6.66 3 7 C0 3.375 0 3.375 0 0 Z " fill="#9B9B9D" transform="translate(78,208)"/>
<path d="M0 0 C-2.12121657 2.33333823 -4.01594365 3.9148886 -7 5 C-9.25 4.625 -9.25 4.625 -11 4 C-7.64191281 0.32209498 -4.88401581 -0.13200043 0 0 Z " fill="#A2A2A3" transform="translate(145,165)"/>
<path d="M0 0 C4.67105792 1.55701931 8.08705685 4.08447373 12 7 C10.02 7.99 10.02 7.99 8 9 C7.79375 8.4225 7.5875 7.845 7.375 7.25 C5.50906354 4.19664942 2.99167574 2.88605645 0 1 C0 0.67 0 0.34 0 0 Z " fill="#767678" transform="translate(102,32)"/>
<path d="M0 0 C0 0.66 0 1.32 0 2 C-0.99 2 -1.98 2 -3 2 C-3 2.66 -3 3.32 -3 4 C-4.8125 5.0625 -4.8125 5.0625 -7 6 C-7.99 5.67 -8.98 5.34 -10 5 C-8.68 4.01 -7.36 3.02 -6 2 C-6.33 1.34 -6.66 0.68 -7 0 C-4.3333581 -1.33332095 -2.83319697 -0.67102033 0 0 Z " fill="#7B7B7B" transform="translate(116,115)"/>
<path d="M0 0 C2.31 0.66 4.62 1.32 7 2 C7.33 3.65 7.66 5.3 8 7 C6 7 6 7 4 5.0625 C3.34 4.381875 2.68 3.70125 2 3 C1.34 2.67 0.68 2.34 0 2 C0 1.34 0 0.68 0 0 Z " fill="#CDCDCE" transform="translate(182,84)"/>
<path d="M0 0 C0.9075 0.185625 1.815 0.37125 2.75 0.5625 C5.68314324 0.95734621 7.2644657 0.94691572 10 0 C9.67 0.99 9.34 1.98 9 3 C4.545 3.495 4.545 3.495 0 4 C-0.33 3.34 -0.66 2.68 -1 2 C-0.67 1.34 -0.34 0.68 0 0 Z " fill="#EFEFEF" transform="translate(64,64)"/>
<path d="M0 0 C4.10958767 1.45044271 7.43258745 3.51110752 11 6 C10.38125 6.144375 9.7625 6.28875 9.125 6.4375 C6.96741678 6.93152225 6.96741678 6.93152225 5 8 C4.731875 7.236875 4.46375 6.47375 4.1875 5.6875 C3.05575888 3.12619116 2.08776599 1.80307062 0 0 Z " fill="#747374" transform="translate(91,25)"/>
<path d="M0 0 C0.99 0.33 1.98 0.66 3 1 C2.34 1 1.68 1 1 1 C0.34 2.65 -0.32 4.3 -1 6 C-2.65 6 -4.3 6 -6 6 C-6 5.34 -6 4.68 -6 4 C-3.1875 1.8125 -3.1875 1.8125 0 0 Z " fill="#C9C9C9" transform="translate(126,172)"/>
<path d="M0 0 C0.66 0.33 1.32 0.66 2 1 C1.67 2.65 1.34 4.3 1 6 C-1.31 6.33 -3.62 6.66 -6 7 C-6 6.34 -6 5.68 -6 5 C-5.01 5 -4.02 5 -3 5 C-3 4.01 -3 3.02 -3 2 C-2.01 1.34 -1.02 0.68 0 0 Z " fill="#C9C9C9" transform="translate(70,93)"/>
<path d="M0 0 C6.52307692 0.61538462 6.52307692 0.61538462 8.9375 2.5625 C9.288125 3.036875 9.63875 3.51125 10 4 C9.67 4.66 9.34 5.32 9 6 C5.06326356 4.68775452 2.77280706 3.08089673 0 0 Z " fill="#878787" transform="translate(115,89)"/>
<path d="M0 0 C-2.1875 2.0625 -2.1875 2.0625 -5 4 C-7.8125 3.75 -7.8125 3.75 -10 3 C-6.68152292 -0.06320961 -4.44849969 -0.3033068 0 0 Z " fill="#949494" transform="translate(73,67)"/>
<path d="M0 0 C0.66 0.33 1.32 0.66 2 1 C-4.75 5 -4.75 5 -7 5 C-7.33 3.68 -7.66 2.36 -8 1 C-7.05125 1.020625 -6.1025 1.04125 -5.125 1.0625 C-2.09333717 1.22551826 -2.09333717 1.22551826 0 0 Z " fill="#858585" transform="translate(61,226)"/>
<path d="M0 0 C2.64 0 5.28 0 8 0 C8 0.66 8 1.32 8 2 C4.91190305 3.76462683 3.76687864 4 0 4 C0 2.68 0 1.36 0 0 Z " fill="#9C9C9C" transform="translate(41,80)"/>
<path d="M0 0 C3.37503669 1.1858237 5.64722731 2.27573689 8 5 C7.01 5.495 7.01 5.495 6 6 C6 5.34 6 4.68 6 4 C5.01 4.33 4.02 4.66 3 5 C2.01 4.67 1.02 4.34 0 4 C0 2.68 0 1.36 0 0 Z " fill="#969797" transform="translate(124,46)"/>
<path d="M0 0 C1.32 0.33 2.64 0.66 4 1 C3.25 2.9375 3.25 2.9375 2 5 C-0.125 5.75 -0.125 5.75 -2 6 C-1.49396008 3.83125748 -1.00016187 2.00032373 0 0 Z " fill="#C4C4C4" transform="translate(180,140)"/>
<path d="M0 0 C0.33 0.99 0.66 1.98 1 3 C-0.98 4.32 -2.96 5.64 -5 7 C-5.66 6.67 -6.32 6.34 -7 6 C-6.01 5.67 -5.02 5.34 -4 5 C-3.835 4.34 -3.67 3.68 -3.5 3 C-3.335 2.34 -3.17 1.68 -3 1 C-2.01 0.67 -1.02 0.34 0 0 Z " fill="#88898A" transform="translate(189,137)"/>
<path d="M0 0 C0.33 0.99 0.66 1.98 1 3 C-1 5 -1 5 -3.625 5.125 C-4.40875 5.08375 -5.1925 5.0425 -6 5 C-3.74193548 0 -3.74193548 0 0 0 Z " fill="#BDBDBE" transform="translate(44,109)"/>
<path d="M0 0 C0.33 0.99 0.66 1.98 1 3 C1.66 3.66 2.32 4.32 3 5 C1.68 5.33 0.36 5.66 -1 6 C-1.99 4.35 -2.98 2.7 -4 1 C-2.68 0.67 -1.36 0.34 0 0 Z " fill="#BBBBBB" transform="translate(110,81)"/>
<path d="M0 0 C-0.8125 2.4375 -0.8125 2.4375 -2 5 C-2.99 5.33 -3.98 5.66 -5 6 C-5.33 4.68 -5.66 3.36 -6 2 C-3 0 -3 0 0 0 Z " fill="#A9AAAD" transform="translate(40,38)"/>
<path d="M0 0 C0.66 0.33 1.32 0.66 2 1 C1.25 2.9375 1.25 2.9375 0 5 C-2 5.875 -2 5.875 -4 6 C-4.66 5.34 -5.32 4.68 -6 4 C-4.02 2.68 -2.04 1.36 0 0 Z " fill="#A1A1A1" transform="translate(46,33)"/>
<path d="M0 0 C2.31 0.66 4.62 1.32 7 2 C6.67 2.66 6.34 3.32 6 4 C2.9375 4.625 2.9375 4.625 0 5 C0 3.35 0 1.7 0 0 Z " fill="#C7C7C6" transform="translate(91,190)"/>
<path d="M0 0 C0.66 0 1.32 0 2 0 C1.34 1.98 0.68 3.96 0 6 C-1.32 5.67 -2.64 5.34 -4 5 C-4 4.34 -4 3.68 -4 3 C-2.68 2.67 -1.36 2.34 0 2 C0 1.34 0 0.68 0 0 Z " fill="#F5F5F7" transform="translate(40,233)"/>
<path d="M0 0 C0.94875 0.04125 1.8975 0.0825 2.875 0.125 C0.52222731 2.84926311 -1.74996331 3.9391763 -5.125 5.125 C-5.125 0.85616396 -4.22482433 0.16899297 0 0 Z " fill="#777779" transform="translate(79.125,214.875)"/>
<path d="M0 0 C0.66 0.33 1.32 0.66 2 1 C2 1.66 2 2.32 2 3 C-0.8125 4.125 -0.8125 4.125 -4 5 C-4.99 4.34 -5.98 3.68 -7 3 C-4.69631264 1.93347808 -2.35981813 0.93578995 0 0 Z " fill="#D2D2D2" transform="translate(142,119)"/>
<path d="M0 0 C0.66 0.33 1.32 0.66 2 1 C0.875 3 0.875 3 -1 5 C-4.1875 5.25 -4.1875 5.25 -7 5 C-4.88437775 2.67281553 -2.94982021 1.14186589 0 0 Z " fill="#7F7F80" transform="translate(51,104)"/>
<path d="M0 0 C3.11257569 0 5.10765685 0.17361624 8 1 C8 1.99 8 2.98 8 4 C5.64828869 3.40138258 3.3140622 2.73075648 1 2 C0.67 1.34 0.34 0.68 0 0 Z " fill="#A9A9A9" transform="translate(140,105)"/>
<path d="M0 0 C-0.33 1.32 -0.66 2.64 -1 4 C-2.875 4.625 -2.875 4.625 -5 5 C-5.66 4.34 -6.32 3.68 -7 3 C-6.34 3 -5.68 3 -5 3 C-5 2.34 -5 1.68 -5 1 C-2 0 -2 0 0 0 Z " fill="#939393" transform="translate(79,89)"/>
<path d="M0 0 C1.65 0 3.3 0 5 0 C5 0.66 5 1.32 5 2 C7.475 2.99 7.475 2.99 10 4 C7.92446352 4.5534764 6.15634036 5 4 5 C4 3.68 4 2.36 4 1 C2.68 0.67 1.36 0.34 0 0 Z " fill="#7F7F7F" transform="translate(79,88)"/>
<path d="M0 0 C-0.33 1.32 -0.66 2.64 -1 4 C-2.65 4 -4.3 4 -6 4 C-6 3.34 -6 2.68 -6 2 C-2.25 0 -2.25 0 0 0 Z " fill="#B8B8B9" transform="translate(54,229)"/>
<path d="M0 0 C0 0.99 0 1.98 0 3 C-1.75 4.75 -1.75 4.75 -4 6 C-5.32 5.67 -6.64 5.34 -8 5 C-4.04 2.525 -4.04 2.525 0 0 Z " fill="#686868" transform="translate(101,141)"/>
<path d="M0 0 C0.99 0.33 1.98 0.66 3 1 C2.34 1 1.68 1 1 1 C0.34 2.32 -0.32 3.64 -1 5 C-2.65 5 -4.3 5 -6 5 C-4.06745228 2.9754262 -2.36841312 1.57894208 0 0 Z " fill="#646464" transform="translate(120,130)"/>
<path d="M0 0 C0.99 0.33 1.98 0.66 3 1 C2.34 1 1.68 1 1 1 C0.67 2.32 0.34 3.64 0 5 C-1.32 4.67 -2.64 4.34 -4 4 C-2.68 2.68 -1.36 1.36 0 0 Z " fill="#898989" transform="translate(127,126)"/>
<path d="M0 0 C0.99 0.33 1.98 0.66 3 1 C0.82575883 3.50037734 -0.73045798 4.43628586 -4 5 C-3 2 -3 2 0 0 Z " fill="#EEEEEE" transform="translate(108,116)"/>
<path d="M0 0 C1.65 0.33 3.3 0.66 5 1 C3.515 2.485 3.515 2.485 2 4 C1.01 3.67 0.02 3.34 -1 3 C-0.67 2.01 -0.34 1.02 0 0 Z " fill="#9E9E9E" transform="translate(116,111)"/>
<path d="M0 0 C2.875 -0.125 2.875 -0.125 6 0 C6.66 0.66 7.32 1.32 8 2 C7.67 2.66 7.34 3.32 7 4 C4.97954558 3.39816251 2.97888961 2.72693904 1 2 C0.67 1.34 0.34 0.68 0 0 Z " fill="#8D8D8D" transform="translate(100,80)"/>
<path d="M0 0 C0.33 1.32 0.66 2.64 1 4 C-0.98 4.99 -0.98 4.99 -3 6 C-3.99 5.34 -4.98 4.68 -6 4 C-4.02 2.68 -2.04 1.36 0 0 Z " fill="#7D7D7E" transform="translate(54,28)"/>
<path d="M0 0 C0 0.66 0 1.32 0 2 C-2.5614657 4.29648649 -3.47967572 5 -7 5 C-6 2 -6 2 -4.0625 0.8125 C-2 0 -2 0 0 0 Z " fill="#EEEEEE" transform="translate(66,24)"/>
<path d="M0 0 C1.32 0.66 2.64 1.32 4 2 C1.64561267 3.42944945 0.51967567 4.08661261 -2.25 3.625 C-2.8275 3.41875 -3.405 3.2125 -4 3 C-2.68 2.01 -1.36 1.02 0 0 Z " fill="#E8E9EB" transform="translate(76,17)"/>
</svg>
